<?xml version="1.0" standalone="no"?>
<!DOCTYPE svg PUBLIC "-//W3C//DTD SVG 20010904//EN"
 "http://www.w3.org/TR/2001/REC-SVG-20010904/DTD/svg10.dtd">
<svg version="1.0" xmlns="http://www.w3.org/2000/svg"
 width="768.000000pt" height="768.000000pt" viewBox="0 0 768.000000 768.000000"
 preserveAspectRatio="xMidYMid meet">

<g transform="translate(0.000000,768.000000) scale(0.100000,-0.100000)"
fill="#000000" stroke="none">
<path d="M663 7405 c-3 -9 -3 -37 0 -62 l5 -45 -74 4 -74 5 3 -71 2 -71 -57
-3 -58 -3 0 -64 0 -64 58 -3 57 -3 0 -90 0 -90 73 -3 72 -3 0 -59 0 -60 80 0
79 0 3 63 3 62 76 -3 75 -4 -7 73 c-12 112 -9 119 61 119 l58 0 5 58 c2 31 2
61 0 65 -3 5 -33 7 -67 6 l-61 -3 4 72 3 72 -71 0 -71 0 0 60 0 60 -85 0 c-68
0 -87 -3 -92 -15z m197 -341 l0 -127 -107 7 c-60 4 -110 10 -113 13 -7 7 -13
201 -6 218 4 12 28 15 116 15 l110 0 0 -126z"/>
<path d="M2900 7349 l0 -69 -54 0 -55 0 1 -49 0 -50 54 -7 54 -6 0 -54 0 -54
104 0 c57 0 111 -3 120 -6 12 -5 16 5 18 52 l3 57 50 1 50 1 -2 124 -2 125
-171 1 -170 2 0 -68z m232 -110 c1 -33 1 -63 -1 -65 -2 -2 -42 -4 -88 -4 l-83
0 0 58 c0 32 3 62 7 65 3 4 41 7 84 7 l77 0 4 -61z"/>
<path d="M1710 7330 l0 -50 55 0 55 0 0 50 0 50 -55 0 -55 0 0 -50z"/>
<path d="M1324 7267 c-3 -8 -4 -32 -2 -52 3 -36 4 -37 46 -39 36 -2 43 1 48
20 3 12 4 35 2 50 -3 26 -7 29 -46 32 -30 2 -44 -1 -48 -11z"/>
<path d="M1488 7275 c-2 -2 -2 -24 0 -48 4 -48 15 -57 75 -57 26 0 27 2 27 54
l0 55 -49 -1 c-27 0 -51 -1 -53 -3z"/>
<path d="M2420 7230 l0 -50 45 0 45 0 0 50 0 50 -45 0 -45 0 0 -50z"/>
<path d="M2610 7225 l0 -52 45 1 46 1 -3 50 -3 50 -42 1 -43 2 0 -53z"/>
<path d="M3410 7236 l0 -46 45 0 45 0 0 40 c0 27 -4 40 -14 40 -7 0 -28 3 -45
6 l-31 7 0 -47z"/>
<path d="M4810 7225 l0 -55 45 0 45 0 0 55 0 55 -45 0 -45 0 0 -55z"/>
<path d="M5203 7193 c10 -128 12 -133 58 -133 21 0 41 5 44 10 4 6 3 55 -1
110 l-7 100 -50 0 -50 0 6 -87z"/>
<path d="M1940 7219 l0 -50 48 3 47 3 3 48 3 47 -50 0 -51 0 0 -51z"/>
<path d="M2160 7225 l0 -45 70 0 70 0 0 45 0 45 -70 0 -70 0 0 -45z"/>
<path d="M3630 7225 l0 -45 45 0 45 0 0 45 0 45 -45 0 -45 0 0 -45z"/>
<path d="M4600 7220 l0 -50 49 0 49 0 4 50 3 50 -52 0 -53 0 0 -50z"/>
<path d="M5800 7220 l0 -50 45 0 45 0 0 50 0 50 -45 0 -45 0 0 -50z"/>
<path d="M6160 7225 c0 -40 2 -45 23 -45 34 0 47 13 54 53 l6 37 -42 0 -41 0
0 -45z"/>
<path d="M4238 7163 c-38 -4 -38 -5 -38 -49 l0 -44 49 0 48 0 6 42 c6 46 2 59
-16 56 -7 -1 -29 -3 -49 -5z"/>
<path d="M1710 7110 l0 -50 55 0 55 0 0 50 0 50 -55 0 -55 0 0 -50z"/>
<path d="M4455 7150 c-4 -6 -5 -30 -3 -53 l3 -42 -47 -3 -48 -3 0 -50 0 -50
53 3 52 3 3 58 c3 52 5 57 26 57 21 0 24 6 28 40 3 32 0 40 -13 40 -10 0 -24
3 -32 6 -8 3 -18 0 -22 -6z"/>
<path d="M4970 7110 l0 -50 45 0 45 0 0 50 0 50 -45 0 -45 0 0 -50z"/>
<path d="M5430 7107 l0 -54 48 1 47 1 0 48 c1 46 0 47 -31 47 -18 0 -39 3 -48
6 -13 5 -16 -3 -16 -49z"/>
<path d="M6160 7118 c0 -55 8 -65 50 -69 l35 -4 3 58 3 57 -46 0 -45 0 0 -42z"/>
<path d="M6370 7105 l0 -55 45 0 45 0 0 55 0 55 -45 0 -45 0 0 -55z"/>
<path d="M6560 7104 c0 -54 1 -56 23 -50 12 3 32 6 45 6 20 0 22 5 22 50 l0
50 -45 0 -45 0 0 -56z"/>
<path d="M3716 7048 c-8 -31 -7 -91 2 -104 4 -7 16 -13 27 -15 19 -4 20 -12
20 -269 l0 -265 -90 -6 c-49 -4 -113 -4 -141 -2 l-50 5 4 145 c3 79 1 148 -4
153 -5 5 -31 10 -59 11 l-50 3 3 -188 c3 -146 0 -191 -10 -197 -17 -10 -101 1
-110 15 -4 6 -8 131 -8 277 0 147 -3 281 -6 298 l-6 31 -79 0 c-92 0 -102 -9
-97 -93 3 -50 4 -52 33 -55 17 -2 36 -8 43 -14 9 -8 12 -101 12 -400 l0 -389
-42 3 -43 3 -7 275 c-8 322 -14 371 -45 385 -12 5 -27 20 -33 33 -10 23 -15
24 -71 20 -46 -3 -65 -10 -78 -25 -9 -11 -24 -23 -33 -26 -16 -6 -17 -18 -10
-134 7 -140 7 -135 4 -375 l-2 -168 -40 0 -40 0 -2 243 -3 242 -40 0 -40 0 -1
-205 -1 -205 -42 -3 -41 -3 0 210 c0 206 0 211 20 211 19 0 21 5 18 68 l-3 67
-72 3 -71 3 -4 -63 c-2 -43 1 -66 9 -71 18 -11 19 -416 1 -439 -7 -9 -30 -21
-51 -28 -45 -14 -58 -36 -55 -92 l3 -43 -55 0 c-53 0 -55 -1 -60 -30 -5 -28
-8 -30 -54 -33 l-48 -3 6 -50 7 -51 -53 4 -53 3 3 -47 3 -48 -45 0 c-57 0 -76
-18 -76 -74 l0 -43 -122 -7 c-67 -4 -213 -4 -325 0 l-203 7 0 67 0 68 38 5
c33 4 42 0 85 -42 l48 -46 54 59 c30 33 54 60 53 61 -67 42 -69 45 -66 104 l3
56 65 0 65 0 3 73 3 72 -71 0 -70 0 0 55 c0 51 3 59 39 97 l38 42 -29 24 c-17
14 -41 44 -55 66 l-26 40 -15 -22 c-8 -12 -26 -35 -41 -52 -24 -26 -30 -28
-73 -23 l-48 6 0 73 0 74 -91 0 -91 0 4 -72 3 -72 -45 -8 c-44 -8 -46 -8 -89
38 -31 32 -46 43 -49 33 -3 -8 -26 -35 -52 -60 l-48 -47 43 -46 c40 -44 42
-48 34 -89 -4 -23 -8 -45 -9 -49 0 -5 -31 -8 -70 -8 l-70 0 0 -75 0 -75 69 0
68 0 7 -41 c6 -35 3 -46 -15 -65 -12 -13 -30 -26 -41 -30 -10 -3 -18 -8 -18
-12 0 -4 23 -36 51 -71 l51 -63 52 51 c52 51 53 52 82 36 16 -8 35 -15 42 -15
8 0 12 -20 12 -65 l0 -65 80 0 79 0 11 -39 c5 -21 17 -42 26 -45 9 -3 139 -6
289 -6 l274 0 7 -35 c3 -20 3 -39 -1 -43 -3 -4 -62 -8 -131 -10 l-124 -4 0
-39 0 -39 94 0 c133 0 174 -20 130 -64 -12 -13 -39 -16 -128 -16 -162 0 -174
4 -197 57 -10 25 -19 56 -19 69 0 14 -6 26 -12 28 -7 3 -82 7 -165 10 l-153 5
0 -29 c0 -78 54 -109 170 -97 l60 7 50 -49 c27 -27 54 -61 60 -76 8 -22 15
-26 33 -20 12 3 103 9 203 12 l181 6 17 -24 c34 -49 25 -55 -83 -62 -54 -3
-146 -3 -203 0 -57 3 -125 3 -151 -1 -45 -7 -47 -9 -47 -41 l0 -33 93 -6 c50
-4 157 -8 237 -11 80 -2 148 -4 153 -4 4 -1 7 -20 7 -43 l0 -41 -260 7 -260 7
0 -46 0 -45 198 -2 197 -3 3 -31 3 -31 -118 -6 c-65 -4 -220 -10 -345 -13
-202 -6 -228 -9 -233 -24 -8 -25 3 -47 28 -54 12 -4 86 -9 165 -13 156 -7 148
-3 155 -73 l2 -25 -153 -3 -152 -3 -21 36 c-19 32 -25 35 -67 35 -87 0 -92 -4
-92 -74 0 -87 16 -106 85 -106 44 0 56 4 65 20 8 15 21 20 50 20 21 0 40 -4
42 -10 2 -5 48 -11 103 -12 l100 -3 3 -47 3 -48 -220 0 -221 0 0 -43 0 -44
127 -6 c71 -4 167 -7 216 -7 l87 0 0 -39 c0 -39 0 -39 -43 -42 -24 -2 -161 -2
-305 -1 l-262 4 -14 25 c-12 23 -19 25 -75 25 -54 0 -64 -3 -82 -26 -19 -24
-20 -32 -10 -88 6 -33 12 -62 13 -64 2 -1 34 -4 72 -6 62 -2 70 0 84 20 14 21
21 22 136 22 66 -1 153 -6 191 -12 39 -6 120 -12 180 -12 l110 -2 3 -38 c2
-21 -1 -43 -6 -48 -6 -6 -159 -10 -383 -10 -238 0 -379 -4 -386 -10 -7 -6 -13
-27 -13 -48 0 -29 6 -41 25 -54 31 -21 125 -22 125 -2 0 20 24 21 362 18 l308
-3 0 -40 0 -39 -133 0 c-74 0 -175 -3 -225 -6 l-92 -7 0 -29 c0 -38 28 -48
131 -48 l79 0 1 -167 c1 -93 1 -204 0 -248 -1 -44 3 -87 8 -95 5 -8 27 -19 48
-25 26 -7 39 -17 41 -30 3 -19 12 -20 270 -20 l267 0 0 -40 0 -40 -312 -3
-313 -2 0 -45 0 -45 130 0 c122 0 130 1 130 19 0 18 5 19 73 14 39 -3 78 -11
86 -17 7 -6 60 -12 118 -14 l104 -4 -3 -37 -3 -36 -60 -5 c-59 -5 -60 -5 -63
-37 l-3 -33 110 0 c110 0 111 0 117 -25 9 -38 -2 -55 -35 -55 -16 0 -33 -5
-37 -11 -5 -8 1 -10 18 -6 43 11 61 -12 57 -71 l-4 -51 90 -3 90 -3 -1 -30 c0
-16 -2 -43 -5 -60 l-4 -30 58 3 c33 2 74 -2 93 -8 33 -11 34 -13 34 -67 l0
-55 74 7 c85 8 113 -2 118 -42 5 -42 66 -73 145 -73 l61 0 -1 48 -2 47 38 3
c34 3 37 1 38 -25 1 -15 1 -34 0 -41 -1 -7 3 -28 8 -45 7 -21 8 -44 1 -66 -9
-31 -8 -33 12 -28 12 4 71 1 131 -4 60 -6 112 -8 115 -4 3 3 9 54 12 113 l5
107 43 3 42 3 0 -164 0 -163 223 -14 c334 -22 693 -19 930 6 l68 7 -3 51 c-1
28 -1 102 0 164 l2 112 35 0 c26 0 35 -4 37 -17 2 -26 5 -90 7 -155 l1 -58 43
0 c56 0 91 19 95 51 2 19 -3 28 -23 37 -25 12 -26 13 -23 114 l3 103 38 3 37
3 2 -83 c1 -46 2 -109 2 -140 1 -31 4 -59 8 -63 3 -4 24 -9 45 -12 l39 -5 2
102 c1 57 5 107 8 111 3 5 23 9 45 9 42 0 40 4 43 -90 1 -25 2 -25 71 -22 66
3 72 5 100 38 17 18 34 34 39 34 5 0 17 7 27 16 10 9 44 18 78 21 60 6 61 6
62 37 1 17 1 35 0 40 -4 18 23 36 56 36 19 0 47 7 63 15 16 9 50 18 75 22 l45
6 -7 54 -6 54 54 -6 c30 -3 64 -8 76 -11 21 -4 22 -2 16 45 -3 27 -2 58 2 68
5 10 7 41 6 69 l-3 51 107 0 c111 0 132 7 120 42 -5 16 -15 21 -39 21 -48 0
-68 18 -58 55 8 28 12 30 68 36 95 11 222 10 229 -1 4 -6 85 -9 223 -8 119 2
227 -1 240 -5 21 -8 22 -6 22 42 l0 51 -387 2 -388 3 -3 43 -3 42 440 0 440 0
13 -27 c12 -25 19 -28 71 -31 52 -3 61 0 83 23 18 19 24 37 24 70 0 65 -16 92
-59 99 -67 11 -87 7 -101 -19 l-13 -25 -482 0 c-266 0 -496 3 -512 6 -26 5
-29 9 -25 37 3 18 10 35 16 39 6 4 209 8 451 8 l440 0 3 48 2 47 -455 -3 -455
-3 0 44 0 43 337 3 c186 1 339 4 342 6 2 2 6 24 8 48 l5 45 -158 -4 c-88 -2
-216 -6 -286 -8 l-128 -4 0 36 0 35 99 -6 c55 -4 106 -10 115 -13 13 -5 16 1
16 25 l0 31 213 2 c269 1 269 1 287 -24 8 -12 36 -43 61 -68 25 -26 49 -55 52
-65 5 -12 14 -16 30 -11 12 3 57 6 99 6 76 0 77 0 80 27 2 21 10 29 35 35 22
6 34 17 42 38 5 17 15 30 20 30 13 0 15 137 3 142 -5 2 -22 23 -40 48 -71 101
-64 97 -187 101 l-110 4 -6 -49 c-3 -28 -11 -52 -17 -54 -7 -2 -19 -19 -27
-38 l-14 -34 -200 0 -201 0 0 45 0 45 165 0 165 0 0 28 c0 50 -5 51 -170 54
l-155 3 -3 43 -3 42 58 0 c77 0 270 18 311 30 18 5 41 18 50 30 17 21 21 21
61 9 24 -7 45 -19 48 -26 3 -8 24 -13 57 -13 47 0 54 3 64 25 7 14 12 50 12
79 0 63 -4 66 -120 66 -64 0 -77 -3 -88 -20 -11 -19 -23 -20 -187 -20 -112 0
-175 -4 -175 -10 0 -14 -68 -45 -77 -36 -12 12 -10 310 2 318 5 4 130 8 276 8
228 0 268 -2 273 -15 4 -11 20 -15 57 -15 42 0 52 3 56 19 3 11 11 22 19 25
15 6 18 46 8 109 l-7 37 -73 0 -73 0 -7 -35 -6 -35 -269 0 -269 0 0 50 0 50
136 0 c121 0 136 -2 140 -17 4 -16 14 -17 67 -13 l62 5 5 63 c3 35 3 65 0 67
-3 1 -35 6 -71 9 -57 6 -67 5 -73 -9 -5 -15 -29 -16 -254 -10 -225 6 -248 9
-263 26 -15 17 -18 17 -30 3 -7 -8 -24 -14 -38 -12 -22 2 -26 8 -26 33 0 27 3
30 30 27 16 -2 35 -8 41 -13 7 -6 16 -4 24 6 10 13 49 15 241 15 l229 0 0 46
0 46 -347 -3 -348 -2 4 39 c1 21 4 40 5 41 3 3 451 13 574 13 l112 0 0 45 0
45 -335 -1 c-184 0 -339 2 -345 6 -5 3 -10 22 -10 41 l0 34 184 0 c101 0 208
5 237 11 85 18 103 17 114 -8 9 -21 17 -23 81 -23 70 0 71 0 117 44 l47 44 0
69 c0 69 0 69 -32 78 -19 6 -38 22 -48 40 -14 25 -24 31 -60 33 -60 5 -90 -5
-90 -28 0 -20 -48 -60 -74 -60 -13 0 -16 -11 -16 -55 l0 -55 -170 0 -170 0 0
84 0 83 123 8 c67 4 145 10 172 14 l50 6 5 65 c5 70 3 68 71 57 34 -5 37 -3
46 26 9 31 11 32 61 30 l52 -2 0 60 c0 69 6 74 83 73 l47 0 0 52 c0 82 18 146
50 184 26 30 29 41 25 80 -2 25 -7 74 -10 110 -8 78 -33 191 -46 205 -5 5 -9
20 -9 35 0 65 -5 69 -83 63 -45 -3 -79 -12 -90 -22 -10 -8 -33 -20 -50 -26
-29 -9 -32 -14 -35 -56 -3 -52 -13 -59 -89 -59 l-43 0 0 -73 0 -72 -107 0
c-60 1 -138 2 -175 3 l-66 2 5 60 6 60 -52 0 -51 0 0 34 c0 18 -3 47 -6 63
l-6 29 54 -1 53 0 3 67 3 68 61 -7 60 -6 -3 64 -4 64 63 -3 63 -4 -3 54 -3 53
59 -3 58 -2 -5 77 c-6 97 -12 132 -23 143 -5 5 -139 10 -299 12 l-290 3 -7
-49 c-4 -27 -11 -53 -16 -58 -6 -6 -54 -11 -107 -12 l-97 -1 6 -36 c7 -44 -5
-56 -59 -61 l-40 -3 -3 -52 c-3 -49 -5 -53 -40 -68 -32 -14 -37 -21 -37 -48 0
-29 -3 -32 -35 -35 -19 -2 -38 -9 -42 -15 -4 -7 -5 -122 -1 -257 4 -172 2
-254 -6 -274 -11 -28 -12 -28 -71 -22 l-59 7 6 -69 6 -69 -92 -1 c-88 0 -91 0
-91 22 0 23 38 66 58 66 6 0 14 10 16 23 8 39 18 521 11 539 -6 14 -11 16 -27
7 -11 -6 -30 -9 -43 -7 l-22 5 -5 -255 c-5 -235 -7 -256 -24 -269 -10 -8 -28
-12 -39 -11 -19 3 -20 10 -19 228 1 123 4 284 8 357 l7 133 -50 0 -49 0 -8
-267 c-4 -148 -8 -297 -8 -333 l-1 -65 -34 -3 c-18 -2 -37 0 -41 5 -15 14 9
633 26 676 8 20 14 48 14 61 0 22 -5 24 -50 28 l-50 3 -4 -40 c-3 -22 -8 -121
-11 -220 -4 -99 -9 -183 -13 -187 -4 -3 -16 -8 -27 -10 -32 -5 -40 63 -37 300
l3 213 31 11 c29 10 30 12 26 63 -3 29 -11 60 -20 68 -20 21 -96 31 -130 18
-27 -10 -28 -14 -28 -75 0 -48 4 -65 15 -70 13 -4 15 -38 15 -215 0 -115 -3
-211 -7 -213 -5 -2 -63 -2 -130 0 l-123 4 -2 336 -3 337 -71 3 c-67 3 -72 1
-78 -20z m2106 -303 c-5 -43 -27 -55 -99 -55 l-63 0 7 -62 6 -61 -61 6 -62 5
0 -60 0 -61 -60 7 -61 7 6 -48 c4 -26 7 -91 8 -143 l2 -95 51 3 52 4 7 -54 c3
-29 7 -77 8 -105 l2 -53 61 0 c61 0 62 0 68 -31 5 -28 9 -31 33 -24 16 4 61 8
102 11 40 2 79 9 87 14 11 10 56 7 106 -6 15 -4 17 5 20 63 l3 68 60 0 60 0 0
50 0 50 51 3 c67 4 73 -5 63 -93 -4 -38 -8 -111 -8 -162 -1 -51 -6 -95 -11
-98 -18 -11 -70 6 -70 22 0 14 -3 14 -20 -2 -11 -10 -20 -26 -20 -36 0 -25
-48 -22 -64 3 -20 33 -34 21 -26 -21 4 -25 3 -44 -3 -50 -6 -6 -42 -11 -80
-11 l-68 0 3 -57 3 -58 -105 0 c-58 0 -146 -1 -196 -2 -88 -3 -91 -4 -87 -25
6 -37 -10 -51 -47 -43 -27 6 -31 11 -27 32 5 28 -14 43 -78 63 -57 18 -65 27
-65 77 l0 44 -35 -7 c-19 -3 -46 -3 -59 0 -22 5 -25 12 -28 59 l-3 52 -46 3
c-45 3 -47 5 -54 38 -10 54 10 294 25 294 4 0 4 19 -2 43 -11 51 -3 107 17
107 11 0 10 5 -5 20 -11 11 -20 25 -20 31 0 24 22 49 45 49 37 0 55 25 55 80
l0 48 53 -2 52 -1 3 52 3 53 62 -3 62 -2 3 53 3 52 192 -2 192 -3 -3 -30z
m-2852 -549 l0 -294 -37 -4 c-21 -3 -40 -4 -42 -2 -3 3 -4 538 -1 587 0 4 18
7 40 7 l40 0 0 -294z m1150 -255 l0 -198 73 -7 c39 -4 93 -6 119 -6 l47 1 3
-48 3 -48 46 3 c71 5 104 -38 97 -124 l-3 -39 -62 -3 -63 -3 0 -42 c0 -23 -4
-47 -8 -53 -4 -7 -51 -13 -122 -15 l-115 -4 0 60 0 59 -125 -2 c-69 -2 -145
-5 -168 -9 -39 -5 -43 -8 -37 -27 4 -11 9 -156 12 -321 l5 -300 -37 -1 c-27 0
-44 -7 -56 -23 -16 -20 -20 -21 -25 -7 -3 9 -4 164 -3 346 l4 330 -162 0 -162
0 2 -42 2 -43 -127 -9 -128 -8 0 -49 c0 -26 -5 -51 -11 -55 -6 -3 -55 -6 -109
-7 l-99 0 -3 -66 -3 -66 -35 1 c-19 0 -46 2 -60 5 -25 4 -25 3 -25 -66 l0 -70
53 0 52 0 0 -56 0 -57 38 9 c57 13 72 4 72 -41 0 -39 0 -39 43 -42 l42 -3 -3
-52 -3 -53 46 7 46 6 -3 -69 -3 -69 -63 -3 -63 -3 2 63 2 63 -60 0 c-34 0 -65
4 -70 8 -4 5 -12 43 -18 85 l-10 77 -62 -3 -61 -4 5 61 6 61 -62 0 -61 0 0
-55 0 -55 -60 0 -59 0 2 -87 2 -88 -56 3 -55 3 4 -115 5 -116 -47 0 -46 0 0
-155 0 -155 235 0 235 0 0 -49 0 -49 -75 -7 c-41 -4 -118 -5 -170 -1 -114 7
-212 -2 -219 -20 -3 -7 -6 -61 -7 -121 l-1 -108 48 0 49 0 -4 -98 -3 -99 48 4
49 3 9 -127 8 -128 59 0 59 0 0 -64 c0 -72 2 -74 73 -68 l48 4 -7 61 -7 60 53
-7 53 -7 -6 35 c-4 28 -2 35 14 39 18 5 19 11 13 56 l-7 50 65 -6 64 -6 10 49
9 49 39 -1 c25 -1 44 -8 53 -20 17 -23 17 -123 1 -129 -7 -2 -32 -9 -55 -15
l-42 -11 -3 -57 -3 -57 -66 3 -66 4 5 -57 5 -58 -57 7 -56 7 0 -48 c0 -26 -3
-59 -7 -72 l-6 -24 81 7 c91 7 86 10 82 -63 -1 -27 3 -47 11 -52 7 -4 57 -5
111 -2 l98 6 -6 -61 -7 -62 132 0 131 0 0 -54 0 -55 323 -1 c177 -1 340 -2
361 -3 l40 -2 -3 57 -2 57 123 -2 123 -2 -3 63 -3 63 108 -3 108 -3 -1 30 c0
17 -2 44 -5 60 l-4 30 78 3 78 3 -3 62 -3 62 -59 -4 -59 -3 5 56 5 56 -64 0
-64 0 7 50 c5 41 4 51 -10 56 -10 4 -16 18 -16 35 0 29 -1 29 -56 29 l-56 0 7
51 7 51 -67 -7 -67 -8 3 51 c2 30 -2 57 -10 66 -7 8 -11 32 -9 53 3 38 3 38
49 41 l47 3 -5 -45 -6 -46 48 0 48 0 -7 -51 -7 -50 48 3 48 3 -2 -53 -3 -54
63 4 62 3 0 -45 0 -45 48 1 c47 0 47 0 47 -32 0 -19 6 -37 15 -42 9 -5 18 -29
22 -60 l6 -52 59 0 60 0 -2 48 c-5 98 -6 96 50 89 l50 -6 0 59 0 60 31 0 30 0
-7 71 -7 71 43 -7 43 -7 -8 96 -7 96 50 0 50 0 0 124 -1 125 -46 5 c-25 3
-127 2 -226 -2 l-180 -7 -1 -65 c-1 -125 2 -118 -51 -116 l-48 1 0 93 0 92
-186 0 -187 0 -4 55 -3 54 85 -5 c47 -3 130 -1 185 3 l100 8 0 110 0 110 57 3
57 3 3 -108 3 -108 28 3 c15 2 37 -4 49 -13 18 -12 56 -15 195 -15 l173 0 0
160 0 160 -51 0 -52 0 7 93 c4 50 8 101 9 112 1 15 -4 20 -23 20 -30 0 -30 1
-30 66 l0 51 78 -4 77 -3 -3 53 -4 53 59 -3 58 -3 0 -103 0 -102 60 0 60 0 -3
-109 -4 -108 202 1 201 1 -3 -348 c-3 -399 2 -377 -96 -377 -44 0 -60 -5 -85
-26 -30 -25 -34 -26 -124 -19 l-93 7 0 -76 0 -76 -55 0 -55 0 0 -115 0 -115
-60 0 -61 0 3 -57 3 -58 53 -19 c50 -18 52 -20 52 -56 0 -37 2 -39 50 -55 33
-11 50 -22 50 -33 0 -9 25 -40 57 -69 l56 -53 -44 -48 c-24 -26 -53 -59 -65
-73 -11 -13 -95 -96 -185 -184 -90 -88 -172 -173 -182 -188 -34 -52 -57 -47
-153 37 -48 42 -92 76 -99 76 -7 0 -19 10 -28 23 -8 12 -31 39 -51 59 -20 20
-36 43 -36 52 0 13 -13 16 -80 16 l-80 0 0 -49 c0 -57 -6 -61 -86 -61 -53 0
-54 -1 -54 -29 0 -16 -6 -33 -12 -38 -20 -16 -96 -27 -171 -26 l-68 1 3 -193
c1 -107 -1 -197 -4 -200 -8 -8 -109 -15 -263 -20 -66 -1 -163 -7 -215 -13 -88
-10 -96 -9 -111 8 -11 13 -33 20 -70 22 l-54 3 -2 194 -2 194 -65 -2 c-42 -1
-66 2 -66 8 0 7 -23 11 -55 11 l-55 0 0 40 0 40 -66 0 -67 0 7 61 6 62 -38 -7
c-20 -3 -54 -6 -75 -6 -34 0 -38 -3 -43 -30 -8 -35 -17 -43 -67 -60 -28 -9
-39 -18 -43 -38 -5 -21 -20 -33 -70 -57 -43 -20 -66 -37 -70 -52 -7 -25 -48
-67 -62 -62 -29 11 -552 510 -552 527 0 9 75 62 88 62 5 0 12 17 16 38 5 33
12 41 46 57 22 10 42 26 45 36 3 9 30 38 59 63 50 42 53 47 55 95 l1 51 -66 0
c-56 0 -65 2 -60 16 3 9 9 33 12 55 4 21 12 39 18 39 6 1 -11 9 -39 18 -49 17
-50 18 -50 56 0 23 -5 41 -12 43 -9 3 -13 28 -13 77 l0 73 -127 9 c-71 4 -163
8 -205 9 l-77 0 -7 62 c-8 77 -21 674 -15 687 2 5 91 6 213 3 l209 -7 -5 55
c-3 30 -9 80 -12 110 l-5 55 57 0 57 0 -6 53 c-2 28 -2 70 2 92 6 36 10 41 51
55 44 15 45 17 51 65 l6 50 -61 63 c-33 35 -73 71 -88 80 -16 9 -28 21 -28 26
0 6 -26 37 -57 69 l-58 59 44 39 c25 22 54 53 65 68 12 16 70 73 129 127 60
53 115 110 123 126 8 15 31 36 51 46 21 11 45 36 58 58 19 34 27 39 63 42 46
3 72 -15 104 -76 13 -25 25 -33 58 -38 41 -7 60 -25 60 -61 1 -18 89 -88 112
-88 7 0 14 10 16 23 5 33 26 39 149 38 l112 -1 3 65 3 65 118 3 118 3 -1 187
c0 103 -1 192 0 197 0 7 120 11 360 13 l360 2 0 -199z m-2832 112 c11 -34 20
-44 48 -53 l35 -12 -3 -71 -3 -72 -47 3 -48 3 0 -55 0 -56 -82 0 c-46 0 -89 4
-96 8 -7 5 -16 28 -20 53 -7 43 -8 44 -50 47 l-42 3 0 65 c0 35 -1 67 -2 72
-2 4 18 8 45 10 l47 3 0 50 0 50 103 -3 102 -3 13 -42z m3788 -299 l-7 -57 60
6 c69 7 71 5 71 -78 l0 -54 28 15 c15 7 37 14 49 14 19 0 23 -9 33 -69 7 -45
8 -76 2 -87 -5 -9 -7 -36 -4 -59 5 -50 -5 -60 -56 -50 -35 6 -36 8 -17 21 10
8 13 14 7 14 -19 0 -14 20 11 41 l22 18 -27 1 c-42 0 -43 -1 -43 -50 l0 -45
-52 3 c-43 2 -53 0 -53 -13 0 -13 9 -16 48 -14 l47 3 3 -43 c4 -54 -8 -63 -72
-55 l-48 6 3 -53 4 -54 -62 3 c-60 4 -62 3 -69 -23 -4 -14 -4 -46 0 -71 l6
-44 -59 0 c-45 0 -60 -4 -65 -16 -5 -12 -18 -15 -58 -12 l-52 3 3 -53 c2 -40
-1 -53 -13 -58 -9 -3 -16 -12 -16 -20 0 -8 -5 -14 -11 -14 -6 0 -9 -6 -6 -14
6 -15 -12 -26 -42 -26 -13 0 -18 8 -19 31 -1 55 -12 44 -12 -12 0 -30 -4 -59
-9 -64 -5 -6 -11 -21 -13 -35 -3 -29 -20 -38 -65 -39 -29 -1 -33 -4 -33 -29 0
-40 -17 -52 -72 -52 l-48 0 0 -50 0 -49 -62 -3 -63 -3 3 -57 4 -58 -66 0 -66
0 0 50 0 51 -58 -7 c-73 -8 -85 4 -80 76 l3 50 -42 0 c-23 0 -45 5 -48 10 -4
6 -11 8 -16 5 -5 -4 -27 -6 -48 -7 -37 0 -39 -2 -45 -37 -13 -81 -13 -81 60
-81 l65 0 -6 -42 c-7 -55 1 -66 50 -70 36 -3 40 -6 43 -32 4 -28 4 -28 52 -23
l49 6 -1 -262 c0 -144 -3 -268 -5 -274 -3 -8 -24 -13 -53 -13 -27 0 -52 -4
-55 -10 -3 -5 -29 -10 -57 -10 -47 0 -50 -1 -44 -22 3 -13 9 -42 12 -65 l7
-43 -57 0 -56 0 0 -60 0 -60 -265 0 -265 0 7 60 6 60 -66 0 -66 0 6 78 6 77
-49 -3 c-27 -1 -75 1 -107 5 l-58 8 0 260 c-1 258 -1 260 21 263 12 2 34 -1
50 -7 28 -9 29 -9 32 27 l3 37 53 -2 54 -3 -4 63 -3 62 63 -3 64 -4 -4 64 -3
63 259 1 c226 2 261 4 271 18 13 18 60 22 70 6 3 -5 11 -10 17 -10 6 0 9 28 7
78 l-4 77 58 -3 57 -4 0 65 0 65 43 -5 c23 -2 50 -6 60 -8 15 -3 17 5 17 56
l0 59 60 0 60 0 0 66 0 66 63 -4 62 -3 -3 58 -4 57 62 0 63 0 -6 66 -5 65 66
-7 65 -7 -6 62 -5 61 64 0 64 0 0 64 0 64 60 -5 60 -6 0 62 0 61 55 0 55 0 0
48 c0 27 3 52 7 55 3 4 33 7 66 7 l60 0 -7 -56z m1014 26 c0 -5 -5 -10 -11
-10 -5 0 -7 5 -4 10 3 6 8 10 11 10 2 0 4 -4 4 -10z m-61 -197 c-1 -51 -2 -54
-10 -28 -5 17 -7 35 -5 42 3 6 -3 14 -12 18 -15 6 -15 8 3 15 11 5 21 9 23 9
1 1 2 -25 1 -56z m-605 -95 c11 -43 8 -48 -38 -48 -40 0 -44 2 -49 27 -7 38
-2 43 42 43 32 0 40 -4 45 -22z m56 -184 c0 -11 -59 -68 -65 -62 -9 9 36 68
52 68 7 0 13 -2 13 -6z m778 -91 l3 -53 -55 0 -56 0 0 48 c0 27 3 52 7 56 4 4
28 6 53 4 l45 -3 3 -52z m432 -783 c0 -14 -7 -20 -23 -20 -13 0 -26 3 -30 6
-12 12 6 34 29 34 17 0 24 -6 24 -20z m-5940 -372 c0 -7 -4 -19 -9 -27 -11
-17 -25 3 -17 24 7 18 26 20 26 3z m5968 -357 c40 -50 43 -108 10 -158 -21
-30 -28 -33 -73 -33 -44 0 -55 5 -93 39 -36 33 -42 44 -42 78 0 44 28 89 64
103 11 5 39 9 62 9 36 1 45 -4 72 -38z m-5318 -305 l0 -205 38 -3 c35 -3 37
-5 40 -40 l3 -38 -66 0 c-112 0 -105 -16 -105 255 l0 235 45 0 45 0 0 -204z
m180 163 l0 -41 43 6 c74 10 177 10 188 -1 6 -6 7 -22 3 -37 l-6 -26 -109 0
-109 0 0 -42 0 -43 159 3 160 4 15 -31 c32 -61 33 -61 -154 -61 l-170 0 0 -47
0 -48 127 3 c70 2 146 1 170 -3 42 -6 43 -7 43 -46 l0 -39 -200 0 -200 0 0 46
c0 37 -4 47 -19 51 -28 7 -31 29 -31 215 l0 167 28 4 c62 9 62 10 62 -34z
m2223 -219 c16 0 17 -19 17 -254 0 -191 -3 -256 -12 -263 -19 -15 -87 -23 -94
-11 -5 8 -7 193 -5 462 l1 79 38 -7 c20 -3 45 -6 55 -6z m2887 -280 c0 -25 -4
-30 -25 -30 -20 0 -25 5 -25 23 0 28 7 37 32 37 13 0 18 -8 18 -30z m-3720
-851 l0 -99 -45 0 -45 0 0 93 c0 52 2 96 4 98 3 2 23 5 45 5 l41 1 0 -98z"/>
<path d="M6171 5913 c0 -27 3 -41 6 -33 3 8 14 25 25 37 22 24 17 43 -13 43
-16 0 -19 -7 -18 -47z"/>
<path d="M4528 4713 c6 -2 18 -2 25 0 6 3 1 5 -13 5 -14 0 -19 -2 -12 -5z"/>
<path d="M3393 4308 c2 -69 3 -68 -70 -52 -20 4 -23 0 -23 -25 0 -32 -17 -41
-86 -41 l-41 0 1 -145 1 -145 58 0 57 0 0 -44 0 -43 47 8 c53 10 63 3 63 -46
l0 -30 107 0 c60 0 123 -3 141 -7 l32 -7 0 87 0 88 88 -4 87 -4 1 146 1 147
-45 -7 -44 -7 3 46 4 47 -52 -7 -53 -6 0 50 0 50 -37 7 c-21 3 -84 6 -140 6
l-103 0 3 -62z"/>
<path d="M1943 7044 c-2 -7 -3 -29 -1 -50 l3 -39 48 -1 47 -1 0 47 0 48 -46 4
c-29 2 -48 -1 -51 -8z"/>
<path d="M2600 7005 l0 -55 44 0 44 0 4 50 c1 28 1 50 -2 51 -3 1 -24 3 -47 5
l-43 4 0 -55z"/>
<path d="M3292 7015 l3 -48 48 -4 47 -4 0 46 c0 45 0 45 -34 45 -19 0 -42 3
-51 6 -14 6 -16 0 -13 -41z"/>
<path d="M3966 7052 c-10 -16 19 -56 46 -63 33 -9 38 -4 38 38 0 32 -1 33 -39
33 -22 0 -42 -4 -45 -8z"/>
<path d="M2790 7001 l0 -51 45 0 45 0 0 45 c0 43 -1 45 -29 45 -16 0 -36 3
-45 6 -13 5 -16 -2 -16 -45z"/>
<path d="M4602 6998 l3 -53 48 -2 c47 -2 47 -2 47 30 0 18 3 42 6 55 6 21 4
22 -50 22 l-57 0 3 -52z"/>
<path d="M4810 7002 c0 -27 2 -51 4 -53 3 -2 25 -3 50 -1 l46 4 0 49 0 49 -50
0 -50 0 0 -48z"/>
<path d="M5074 7019 c3 -17 6 -40 6 -50 0 -16 8 -19 55 -19 l55 0 0 44 c0 42
-1 44 -37 50 -21 3 -49 6 -62 6 -21 0 -23 -3 -17 -31z"/>
<path d="M1314 6989 c3 -17 6 -40 6 -50 0 -15 8 -19 40 -19 l40 0 0 50 0 50
-46 0 -46 0 6 -31z"/>
<path d="M1500 6963 l0 -51 45 1 45 2 0 51 0 51 -45 -1 -45 -1 0 -52z"/>
<path d="M3497 6962 c-37 -9 -67 -57 -67 -109 0 -37 3 -43 20 -43 11 0 24 -8
27 -17 10 -26 23 -33 69 -33 38 0 41 3 58 41 43 96 -14 182 -107 161z"/>
<path d="M2210 6894 l0 -67 -50 7 -50 7 0 -61 0 -60 60 0 60 0 0 -40 c0 -39 1
-40 33 -39 60 2 82 13 87 44 4 27 11 31 53 39 l47 9 0 48 c0 38 -4 48 -20 52
-17 4 -20 14 -20 66 l0 61 -100 0 -100 0 0 -66z"/>
<path d="M6372 6923 c4 -22 64 -41 80 -25 21 21 0 42 -42 42 -34 0 -41 -3 -38
-17z"/>
<path d="M6740 6885 l0 -55 55 0 55 0 0 55 0 55 -55 0 -55 0 0 -55z"/>
<path d="M4970 6885 l0 -45 45 0 45 0 0 45 0 45 -45 0 -45 0 0 -45z"/>
<path d="M2600 6785 l0 -55 45 0 45 0 0 55 0 55 -45 0 -45 0 0 -55z"/>
<path d="M4604 6831 c-2 -2 -4 -26 -4 -52 l0 -48 55 0 55 1 0 48 0 48 -51 4
c-28 1 -53 1 -55 -1z"/>
<path d="M1834 6821 c-2 -2 -4 -26 -4 -53 l0 -48 55 0 55 0 0 53 0 52 -51 0
c-28 0 -53 -2 -55 -4z"/>
<path d="M4810 6779 l0 -50 48 3 47 3 3 48 3 47 -50 0 -51 0 0 -51z"/>
<path d="M1110 6771 l0 -51 -65 0 -65 0 0 -49 0 -48 59 -7 c68 -8 78 -16 83
-71 3 -39 4 -40 45 -43 l42 -3 6 43 c3 24 5 95 3 158 l-3 115 -52 3 -53 3 0
-50z"/>
<path d="M1323 6807 c-2 -4 -2 -25 2 -46 6 -36 9 -39 47 -45 22 -4 42 -5 43
-4 2 2 5 25 6 53 l4 49 -48 1 c-27 0 -51 -4 -54 -8z"/>
<path d="M1595 6810 c-2 -3 -1 -25 2 -48 l6 -42 48 0 49 0 0 44 0 44 -51 4
c-28 1 -52 1 -54 -2z"/>
<path d="M6370 6765 l0 -55 44 0 44 0 4 48 c3 26 3 50 1 55 -2 4 -24 7 -49 7
l-44 0 0 -55z"/>
<path d="M397 6713 c-4 -3 -7 -28 -7 -55 l0 -48 55 0 55 0 0 55 0 55 -48 0
c-27 0 -52 -3 -55 -7z"/>
<path d="M3976 6644 c-12 -12 -16 -38 -16 -112 l0 -97 37 1 38 1 7 54 c5 30 5
80 2 112 -5 51 -8 57 -29 57 -13 0 -31 -7 -39 -16z"/>
<path d="M3586 6624 c-6 -22 8 -162 17 -170 2 -3 18 -9 35 -13 29 -9 32 -7 42
25 8 22 9 60 5 104 l-7 68 -43 4 c-38 3 -45 0 -49 -18z"/>
<path d="M4692 6573 l3 -68 68 -3 67 -3 0 71 0 70 -70 0 -71 0 3 -67z"/>
<path d="M6533 6613 c-14 -5 -17 -61 -5 -79 4 -6 24 -14 45 -18 l37 -7 0 36
c0 63 -28 88 -77 68z"/>
<path d="M620 6556 l0 -56 49 0 49 0 4 50 c2 39 0 50 -12 50 -8 0 -32 3 -52 6
l-38 7 0 -57z"/>
<path d="M1330 6549 c0 -48 1 -49 31 -49 29 0 30 1 27 42 -3 36 -7 43 -30 49
-28 7 -28 7 -28 -42z"/>
<path d="M1482 6488 l3 -113 46 -1 47 -2 6 46 c3 24 6 76 6 113 l0 69 -55 0
-56 0 3 -112z"/>
<path d="M7110 6525 l0 -56 63 3 62 3 3 53 3 52 -65 0 -66 0 0 -55z"/>
<path d="M1700 6268 l0 -268 258 0 257 0 -1 168 c0 92 -1 212 -2 268 l-2 101
-255 -1 -255 -1 0 -267z m416 140 c-3 -13 -6 -85 -6 -160 l0 -138 -150 0 -150
0 0 160 0 160 156 0 156 0 -6 -22z"/>
<path d="M806 6473 l-38 -4 7 -47 c4 -26 8 -48 8 -48 1 -1 26 -4 55 -6 l52 -5
0 58 c0 65 7 61 -84 52z"/>
<path d="M6750 6354 l0 -67 53 7 c28 3 70 6 92 6 37 0 41 3 51 35 13 42 6 49
-41 41 -25 -5 -36 -3 -43 9 -7 14 -65 34 -99 35 -9 0 -13 -20 -13 -66z"/>
<path d="M397 6333 c-9 -8 -9 -56 -1 -77 4 -11 19 -16 50 -16 l44 0 0 50 0 50
-43 0 c-24 0 -47 -3 -50 -7z"/>
<path d="M7100 6271 c0 -58 3 -70 18 -74 22 -6 119 -4 125 3 2 3 7 29 10 58 6
51 6 52 -21 52 -15 0 -45 7 -67 15 -64 23 -65 22 -65 -54z"/>
<path d="M4827 6230 c-4 -36 -8 -99 -9 -140 -3 -64 -1 -75 15 -78 15 -3 17 6
16 95 0 54 -4 118 -8 143 l-7 45 -7 -65z"/>
<path d="M620 6116 l0 -46 51 0 50 0 -3 43 -3 42 -47 3 -48 3 0 -45z"/>
<path d="M397 6143 c-11 -10 -8 -72 3 -94 8 -14 21 -19 50 -19 l40 0 0 60 0
60 -43 0 c-24 0 -47 -3 -50 -7z"/>
<path d="M6643 6081 c-15 -10 -15 -81 -1 -85 7 -3 55 -7 106 -9 l92 -5 -3 52
-3 51 -91 1 c-50 1 -95 -2 -100 -5z"/>
<path d="M6980 6072 c0 -9 3 -34 6 -54 l7 -38 87 0 87 0 7 38 c12 73 16 69
-94 70 -88 1 -100 -1 -100 -16z"/>
<path d="M7226 5973 l-39 -4 7 -91 c3 -50 8 -93 11 -96 2 -2 25 -7 51 -10 l47
-5 -6 69 c-4 38 -7 86 -7 107 0 24 -4 36 -12 35 -7 -1 -31 -3 -52 -5z"/>
<path d="M270 5925 l0 -45 44 0 44 0 4 45 3 45 -47 0 -48 0 0 -45z"/>
<path d="M520 5928 c0 -25 2 -47 4 -49 3 -2 25 -3 50 -1 l46 4 0 39 c0 36 -2
39 -27 39 -16 0 -38 3 -50 6 -21 6 -23 3 -23 -38z"/>
<path d="M6864 5948 c3 -13 6 -58 6 -100 l0 -78 49 0 48 0 7 53 c3 28 6 73 6
100 l0 47 -61 0 c-59 0 -61 -1 -55 -22z"/>
<path d="M1753 5909 c-7 -7 -13 -19 -13 -25 0 -7 -9 -16 -20 -19 -17 -5 -20
-15 -20 -61 0 -42 3 -54 15 -54 9 0 20 -11 25 -25 9 -22 15 -25 62 -25 49 1
55 3 81 37 38 51 36 92 -6 137 -38 39 -102 58 -124 35z"/>
<path d="M6550 5848 c0 -53 11 -68 46 -68 34 0 34 1 34 45 l0 45 -40 0 c-35 0
-40 -3 -40 -22z"/>
<path d="M6740 5823 l0 -50 45 -1 45 0 0 44 c0 42 -1 44 -29 44 -16 0 -36 3
-45 6 -13 5 -16 -2 -16 -43z"/>
<path d="M272 5678 l3 -103 113 -3 112 -3 0 106 0 105 -116 0 -116 0 4 -102z"/>
<path d="M7067 5773 l-88 -4 3 -55 3 -55 92 -2 c51 0 94 1 97 3 2 3 6 30 7 60
2 42 0 55 -11 55 -8 1 -55 0 -103 -2z"/>
<path d="M658 5682 c-36 -3 -38 -5 -38 -38 0 -31 3 -34 29 -34 16 0 36 -3 45
-6 13 -5 16 2 16 34 0 47 -2 48 -52 44z"/>
<path d="M6825 5523 c-27 -7 -56 -11 -62 -8 -9 3 -13 -9 -13 -43 l0 -47 68 -3
c37 -2 87 -4 112 -5 l45 -2 0 59 0 58 -50 2 c-27 0 -72 -5 -100 -11z"/>
<path d="M532 5473 l3 -47 93 -4 92 -4 0 51 0 51 -96 0 -95 0 3 -47z"/>
<path d="M810 5471 l0 -41 41 0 40 0 -3 38 c-3 35 -5 37 -40 40 l-38 3 0 -40z"/>
<path d="M6380 5465 l0 -45 50 0 50 0 -2 45 -1 45 -49 0 -48 0 0 -45z"/>
<path d="M6570 5466 l0 -43 40 0 40 0 0 43 0 44 -40 0 -40 0 0 -44z"/>
<path d="M400 5291 l0 -39 50 -4 50 -3 0 43 0 42 -50 0 -50 0 0 -39z"/>
<path d="M822 5293 c4 -37 4 -38 51 -41 l47 -3 0 40 0 41 -51 0 -50 0 3 -37z"/>
<path d="M6598 5323 l-98 -4 0 -80 0 -80 108 7 c59 4 110 12 115 18 4 6 6 40
5 76 -2 49 -7 65 -18 65 -8 1 -59 -1 -112 -2z"/>
<path d="M7043 5323 l-63 -4 0 -149 c0 -81 -3 -155 -6 -164 -5 -14 10 -16 131
-16 l137 0 -3 38 c-4 52 4 61 51 55 l40 -6 0 57 0 56 -55 0 -55 0 6 70 7 70
-64 -2 c-35 -1 -92 -3 -126 -5z"/>
<path d="M650 5290 c0 -28 3 -30 35 -30 32 0 35 2 35 30 0 28 -3 30 -35 30
-32 0 -35 -2 -35 -30z"/>
<path d="M6750 5135 l0 -45 45 0 c40 0 45 3 45 23 0 12 3 32 6 45 6 21 3 22
-45 22 l-51 0 0 -45z"/>
<path d="M270 5135 c0 -35 0 -35 45 -35 45 0 45 0 45 35 0 35 0 35 -45 35 -45
0 -45 0 -45 -35z"/>
<path d="M526 5139 c-8 -43 -2 -49 55 -49 l49 0 0 40 0 40 -49 0 c-46 0 -49
-1 -55 -31z"/>
<path d="M810 5119 l0 -40 48 3 c47 3 47 3 50 41 l3 37 -50 0 -51 0 0 -41z"/>
<path d="M1060 5023 c0 -33 -4 -42 -25 -51 -24 -11 -25 -16 -25 -92 0 -72 2
-80 19 -80 23 0 38 -17 43 -50 3 -24 5 -25 100 -28 l97 -3 3 33 c2 28 8 34 31
36 l27 3 0 88 c0 65 -4 92 -14 100 -8 7 -18 26 -21 42 -7 29 -7 29 -83 29 -42
0 -94 3 -114 6 l-38 7 0 -40z m176 -89 c-3 -9 -6 -38 -6 -65 l0 -49 -60 0 -60
0 0 65 0 65 66 0 c56 0 65 -2 60 -16z"/>
<path d="M6398 5003 c-25 -4 -28 -9 -28 -43 0 -38 0 -38 46 -42 25 -2 47 -1
50 1 2 2 4 24 4 48 0 46 -1 47 -72 36z"/>
<path d="M6557 5003 c-2 -5 -2 -27 1 -50 l4 -41 44 0 44 0 0 49 0 49 -44 0
c-25 0 -47 -3 -49 -7z"/>
<path d="M181 4857 c1 -79 4 -178 7 -220 l5 -77 217 0 217 0 7 46 c3 26 6 125
6 220 l0 174 -231 0 -230 0 2 -143z m264 43 l80 0 -3 -112 c-3 -69 -9 -116
-16 -120 -13 -9 -127 -10 -178 -2 l-38 7 0 120 0 120 38 -7 c20 -3 73 -6 117
-6z"/>
<path d="M397 4803 c-4 -3 -7 -19 -7 -34 0 -32 23 -44 64 -33 35 8 38 59 4 68
-30 8 -53 8 -61 -1z"/>
<path d="M6750 4960 l0 -40 45 0 45 0 0 40 0 40 -45 0 -45 0 0 -40z"/>
<path d="M825 4981 c-3 -2 -5 -19 -5 -38 0 -32 1 -33 40 -33 39 0 40 1 40 34
0 31 -3 34 -35 38 -20 2 -38 2 -40 -1z"/>
<path d="M6370 4785 l0 -45 50 0 50 0 0 45 0 45 -50 0 -50 0 0 -45z"/>
<path d="M6562 4780 l3 -45 43 -3 42 -3 0 44 0 45 -45 4 -46 3 3 -45z"/>
<path d="M6775 4823 c-29 -4 -30 -6 -27 -48 l4 -44 44 1 44 1 0 38 c0 22 1 42
3 47 2 8 -26 11 -68 5z"/>
<path d="M817 4814 c-4 -4 -7 -25 -7 -46 l0 -38 44 0 44 0 -1 43 c-2 41 -3 42
-37 45 -20 2 -39 0 -43 -4z"/>
<path d="M6960 4781 l0 -39 46 -4 c25 -2 47 -1 50 1 2 2 4 22 4 43 l0 38 -50
0 -50 0 0 -39z"/>
<path d="M7160 4770 l0 -50 49 0 c53 0 94 24 104 61 5 18 2 20 -18 16 -14 -2
-26 -1 -27 3 -2 4 -27 10 -55 13 l-53 6 0 -49z"/>
<path d="M6980 4605 l0 -45 45 0 45 0 0 45 0 45 -45 0 -45 0 0 -45z"/>
<path d="M808 4600 c-2 -23 -3 -42 -2 -43 2 -1 22 -1 46 1 42 4 43 4 42 40 -1
36 -2 37 -41 40 l-41 3 -4 -41z"/>
<path d="M6750 4605 c0 -35 0 -35 45 -35 45 0 45 0 45 35 0 35 0 35 -45 35
-45 0 -45 0 -45 -35z"/>
<path d="M262 4413 l3 -48 43 -3 42 -3 0 50 0 51 -46 0 -45 0 3 -47z"/>
<path d="M620 4415 c0 -32 4 -45 14 -45 7 0 28 -3 45 -6 l31 -6 0 51 0 51 -45
0 -45 0 0 -45z"/>
<path d="M802 4410 l3 -45 43 -3 42 -3 0 44 0 45 -45 4 -46 3 3 -45z"/>
<path d="M6865 4450 c-3 -5 -3 -25 1 -45 6 -35 6 -35 60 -35 l54 0 0 45 0 45
-54 0 c-30 0 -58 -4 -61 -10z"/>
<path d="M7160 4438 c0 -13 -3 -33 -6 -45 -6 -22 -3 -23 45 -23 l51 0 0 45 0
45 -45 0 c-40 0 -45 -3 -45 -22z"/>
<path d="M7340 4415 l0 -45 50 0 50 0 0 45 0 45 -50 0 -50 0 0 -45z"/>
<path d="M444 4428 c3 -13 6 -26 6 -31 0 -16 40 19 40 35 0 13 -8 18 -26 18
-22 0 -25 -3 -20 -22z"/>
<path d="M417 4248 c-8 -29 -1 -36 48 -40 38 -3 40 -2 40 27 0 28 -3 30 -41
33 -36 3 -42 0 -47 -20z"/>
<path d="M620 4239 c0 -33 1 -34 45 -35 43 -1 45 0 45 27 0 23 -4 29 -22 29
-13 0 -33 3 -45 6 -21 6 -23 3 -23 -27z"/>
<path d="M6131 4256 c-7 -8 -11 -27 -9 -43 l3 -28 175 0 175 0 3 43 3 42 -169
0 c-135 0 -172 -3 -181 -14z"/>
<path d="M7160 4242 c0 -27 2 -28 43 -27 23 1 41 4 40 8 -2 4 -3 16 -3 27 0
17 -7 20 -40 20 -37 0 -40 -2 -40 -28z"/>
<path d="M810 4220 l0 -40 40 0 40 0 0 40 0 40 -40 0 -40 0 0 -40z"/>
<path d="M6600 4233 c0 -22 4 -23 64 -23 44 0 67 -5 76 -15 8 -10 30 -15 61
-15 l49 0 0 39 0 40 -125 -1 c-124 -1 -125 -1 -125 -25z"/>
<path d="M270 4081 c0 -46 2 -51 23 -51 12 0 32 -3 45 -6 21 -6 22 -3 22 45 0
46 -2 51 -22 51 -13 0 -33 3 -45 6 -22 6 -23 3 -23 -45z"/>
<path d="M6975 4063 c-4 -38 -8 -86 -8 -108 l-2 -40 138 -3 137 -3 0 58 c0 32
-3 82 -6 111 l-7 52 -122 0 -122 0 -8 -67z"/>
<path d="M124 3968 c3 -13 6 -31 6 -40 0 -15 9 -18 50 -18 l50 0 0 40 0 40
-56 0 c-54 0 -56 -1 -50 -22z"/>
<path d="M321 3883 l-43 -4 4 -61 c3 -47 9 -65 26 -78 12 -10 18 -20 15 -24
-4 -3 28 -7 70 -8 42 -1 85 -2 95 -2 19 -1 23 28 14 127 l-5 57 -66 -2 c-36
-1 -86 -3 -110 -5z"/>
<path d="M6990 3783 c0 -31 2 -33 28 -27 48 10 52 13 52 33 0 15 -8 20 -40 23
-39 3 -40 3 -40 -29z"/>
<path d="M800 3670 c-30 -5 -83 -8 -117 -9 -62 -1 -63 -1 -62 -28 2 -67 11
-78 67 -83 49 -5 53 -4 58 17 6 21 11 23 80 23 l74 0 0 35 c0 19 0 38 0 43 1
10 -36 11 -100 2z"/>
<path d="M157 3663 c-10 -9 -8 -55 2 -71 5 -9 25 -12 57 -10 l49 3 3 43 3 42
-54 0 c-29 0 -57 -3 -60 -7z"/>
<path d="M6980 3638 c0 -57 10 -68 56 -68 l43 0 -1 45 -1 45 -48 0 c-44 0 -49
-2 -49 -22z"/>
<path d="M7170 3613 l0 -43 50 0 50 0 0 44 0 44 -50 -1 -50 -1 0 -43z"/>
<path d="M397 3604 c-15 -15 -7 -102 11 -122 24 -29 72 -31 106 -5 24 20 27
27 24 75 l-3 53 -65 3 c-36 2 -69 0 -73 -4z"/>
<path d="M990 3460 l0 -40 50 0 c41 0 50 3 50 18 0 9 3 27 6 40 6 21 4 22 -50
22 l-56 0 0 -40z"/>
<path d="M180 3435 l0 -45 45 0 45 0 0 45 0 45 -45 0 -45 0 0 -45z"/>
<path d="M6985 3471 c-3 -2 -5 -24 -5 -48 l0 -43 51 0 50 0 -3 48 -3 47 -43 1
c-23 0 -45 -2 -47 -5z"/>
<path d="M7170 3429 c0 -48 1 -51 23 -45 12 3 34 6 50 6 25 0 27 3 27 45 l0
45 -50 0 -50 0 0 -51z"/>
<path d="M685 3345 c-5 -2 -44 -5 -85 -7 l-75 -4 -3 -262 -2 -262 295 0 295 0
0 259 0 258 -77 7 c-111 9 -336 17 -348 11z m200 -99 l120 -4 0 -164 0 -163
-182 0 c-100 0 -183 2 -186 5 -2 3 -7 78 -10 167 l-5 162 36 4 c21 2 53 2 72
0 19 -1 89 -5 155 -7z"/>
<path d="M737 3105 c-14 -96 -18 -91 81 -89 l87 3 -3 57 c-1 32 -5 60 -7 62
-3 3 -38 7 -78 10 l-74 4 -6 -47z"/>
<path d="M6610 3283 c0 -47 12 -63 44 -63 29 0 31 2 30 37 -1 36 -3 38 -37 41
-30 3 -37 0 -37 -15z"/>
<path d="M6800 3248 l0 -48 46 0 45 0 -3 48 -3 47 -42 1 -43 0 0 -48z"/>
<path d="M180 3250 c0 -42 2 -44 58 -54 l32 -5 0 49 0 50 -45 0 -45 0 0 -40z"/>
<path d="M6990 3245 l0 -45 45 0 45 0 0 45 0 45 -45 0 -45 0 0 -45z"/>
<path d="M7170 3245 l0 -45 50 0 50 0 0 45 0 45 -50 0 -50 0 0 -45z"/>
<path d="M290 3080 l0 -50 49 0 49 0 4 44 c3 42 1 45 -26 50 -70 14 -76 11
-76 -44z"/>
<path d="M6840 3065 c0 -41 2 -45 25 -45 23 0 25 4 25 45 0 41 -2 45 -25 45
-23 0 -25 -4 -25 -45z"/>
<path d="M6990 3065 l0 -45 45 0 45 0 0 45 0 45 -45 0 -45 0 0 -45z"/>
<path d="M287 2933 c-4 -3 -7 -30 -7 -60 l0 -53 55 0 55 0 0 44 c0 67 -6 76
-54 76 -24 0 -46 -3 -49 -7z"/>
<path d="M6990 2857 l0 -62 74 -23 c85 -26 105 -27 131 -8 14 10 19 27 20 67
0 48 -3 55 -26 66 -14 7 -65 15 -113 18 l-86 5 0 -63z"/>
<path d="M6650 2789 c-25 -4 -64 -8 -86 -8 -44 -1 -54 -11 -54 -57 0 -23 -3
-24 -57 -24 l-58 0 0 -131 0 -130 24 6 c71 18 79 17 91 -4 7 -13 9 -39 4 -66
l-6 -45 121 0 121 0 0 50 0 50 55 0 55 0 0 135 0 135 -60 0 -60 0 0 50 c0 56
1 56 -90 39z m80 -249 l0 -70 -95 0 -95 0 0 70 0 70 95 0 95 0 0 -70z"/>
<path d="M6151 2751 c-9 -6 -11 -18 -7 -35 6 -25 10 -26 70 -26 53 0 65 3 68
18 9 42 -2 52 -61 52 -31 0 -62 -4 -70 -9z"/>
<path d="M1222 2724 c4 -36 22 -40 99 -23 62 14 82 39 32 39 -16 0 -52 3 -81
6 l-54 6 4 -28z"/>
<path d="M1511 2648 l4 -63 -62 3 c-68 4 -67 5 -78 -60 -3 -21 -13 -44 -21
-52 -8 -9 -20 -29 -26 -46 -10 -30 -12 -31 -62 -29 l-51 3 -3 -47 c-3 -47 -3
-47 -39 -47 l-35 0 7 -72 c5 -48 14 -81 27 -98 54 -69 139 -150 176 -169 35
-18 42 -26 42 -52 0 -30 3 -33 52 -43 15 -3 49 -27 77 -54 89 -85 115 -102
160 -102 l41 0 0 -45 0 -44 57 -3 c57 -3 57 -3 66 -40 9 -37 10 -38 53 -38 41
0 45 -3 58 -35 13 -31 19 -35 51 -35 45 0 98 -22 116 -48 8 -11 41 -29 74 -40
33 -11 79 -30 102 -41 23 -12 49 -21 57 -21 9 0 31 -16 51 -36 34 -33 40 -36
93 -34 80 3 80 3 87 -29 6 -27 13 -31 88 -51 45 -11 113 -27 151 -33 58 -10
71 -16 80 -37 5 -14 10 -26 11 -27 1 -2 196 -24 421 -47 231 -24 640 -22 884
5 177 19 339 52 388 78 26 14 154 40 234 47 70 7 80 16 90 79 3 17 14 21 68
28 117 13 174 30 179 52 5 28 19 35 73 35 44 0 78 18 78 40 0 5 18 15 41 21
22 7 44 20 49 30 7 12 28 19 69 24 l60 7 6 39 c7 42 8 43 78 39 l47 -2 0 40
c0 38 2 41 33 47 55 11 86 26 92 46 11 33 35 49 75 49 39 0 50 13 50 66 0 18
8 23 48 30 45 9 47 11 57 53 12 47 22 55 77 65 33 6 37 10 43 46 8 47 49 86
99 96 l34 6 4 101 c3 100 3 103 -28 147 -27 40 -36 46 -75 50 -43 5 -44 6 -47
43 -3 37 -4 37 -47 37 l-44 0 -3 58 -3 57 -60 -3 -60 -4 3 47 c2 26 0 51 -5
56 -5 5 -30 12 -57 15 l-48 7 3 -59 4 -59 -55 -5 -55 -5 -5 -49 -5 -50 -59
-17 c-68 -20 -76 -30 -69 -76 l6 -33 -72 0 -71 0 0 -54 0 -55 -42 -5 c-24 -3
-54 -7 -68 -8 -23 -3 -24 -7 -22 -45 3 -39 1 -43 -25 -48 -15 -4 -57 -13 -93
-21 -36 -7 -77 -16 -92 -19 -25 -5 -28 -9 -28 -49 l0 -43 -67 -6 c-38 -4 -96
-9 -130 -13 l-62 -7 6 -42 5 -42 -53 -7 c-30 -4 -63 -9 -74 -10 -11 -2 -68 -4
-127 -5 l-108 -1 0 -39 0 -39 -77 -11 c-366 -53 -739 -54 -1163 -6 -216 25
-199 20 -193 59 l5 33 -148 6 c-81 4 -152 11 -158 17 -7 7 -7 23 1 50 l10 40
-76 0 c-120 0 -151 8 -163 41 -15 44 -73 76 -149 84 -89 9 -94 13 -81 65 12
49 16 46 -90 55 -85 7 -99 17 -100 67 -1 41 -11 48 -70 48 -26 0 -58 4 -71 9
-23 9 -24 13 -16 48 14 64 15 63 -59 63 -38 0 -71 3 -75 6 -3 3 3 25 13 49 10
24 16 46 13 49 -4 3 -31 6 -62 7 -94 2 -106 8 -107 58 -1 23 -5 46 -10 50 -5
5 -35 12 -68 16 l-58 7 3 -64z m220 -242 c10 -17 19 -40 19 -50 0 -11 7 -27
16 -37 13 -15 15 -30 9 -76 -6 -54 -11 -62 -68 -118 -60 -59 -63 -60 -117 -60
-47 0 -55 -3 -58 -20 -6 -32 -20 -40 -39 -23 -10 9 -38 22 -62 30 -39 14 -45
20 -64 69 -33 85 -29 128 19 196 23 32 50 63 60 68 10 6 30 17 44 25 32 19
133 36 183 31 31 -2 43 -10 58 -35z m4213 -26 c6 -6 18 -10 28 -10 12 0 20
-10 24 -29 4 -20 13 -31 26 -33 14 -2 26 -18 38 -50 31 -83 33 -112 8 -153
-31 -52 -96 -117 -148 -150 l-44 -28 -16 24 c-8 13 -57 70 -109 126 -98 107
-141 161 -141 176 0 12 106 108 144 130 25 15 44 17 106 13 41 -3 79 -11 84
-16z m-3982 -161 c94 -55 123 -93 134 -178 5 -39 2 -51 -19 -78 -33 -45 -66
-69 -114 -83 -39 -12 -45 -11 -113 23 l-72 36 -31 -36 c-18 -20 -35 -41 -39
-47 -8 -13 -78 20 -78 37 0 5 29 42 64 81 102 114 177 209 194 244 9 17 17 32
18 32 2 0 27 -14 56 -31z m3607 -57 c11 -21 16 -42 13 -48 -13 -17 -97 -81
-131 -98 l-33 -18 38 -39 38 -39 25 23 c33 30 113 87 122 87 4 0 10 -12 13
-27 4 -16 9 -35 12 -44 4 -14 -64 -67 -109 -85 -10 -3 -17 -10 -17 -15 0 -12
41 -69 50 -69 10 0 158 98 165 109 13 22 23 10 35 -40 7 -27 11 -51 9 -53 -2
-2 -17 -10 -34 -18 -16 -8 -72 -41 -124 -72 -73 -45 -96 -55 -102 -44 -5 7 -9
17 -9 21 0 11 -92 146 -167 246 -63 84 -75 111 -49 111 13 0 146 85 204 130
13 11 26 20 28 20 2 0 12 -17 23 -38z m-3334 -132 c10 -16 147 -80 172 -80 24
0 29 -20 16 -69 -5 -20 -11 -22 -38 -18 -18 3 -61 17 -95 30 -41 17 -62 21
-64 14 -2 -7 -8 -27 -14 -45 l-10 -32 61 -31 c34 -17 64 -33 65 -35 2 -1 -1
-19 -8 -39 -13 -40 -9 -41 -115 4 -66 28 -70 29 -82 11 -31 -45 -23 -58 67
-100 47 -22 89 -41 94 -43 12 -4 -16 -78 -31 -84 -15 -6 -202 92 -245 127
l-31 26 22 42 c19 38 73 123 148 234 13 18 32 48 44 66 22 33 33 39 44 22z
m3040 -146 c82 -41 120 -95 119 -172 0 -61 -30 -136 -68 -171 -19 -17 -185
-86 -191 -79 -1 2 -12 34 -25 72 -13 39 -46 103 -78 150 -57 82 -97 170 -87
187 4 5 17 9 30 9 13 0 48 9 77 19 94 35 128 32 223 -15z m-2701 -14 c20 -7
26 -17 26 -38 0 -35 26 -128 45 -163 8 -14 17 -46 21 -70 7 -48 23 -86 24 -59
0 8 23 65 49 125 l49 110 33 -3 c41 -4 56 -16 42 -34 -11 -14 -54 -149 -99
-316 l-29 -103 -40 7 c-22 3 -43 9 -47 13 -3 3 -20 53 -38 111 -18 58 -39 122
-47 143 -16 38 -43 51 -43 20 0 -10 -13 -38 -29 -62 -16 -24 -37 -61 -47 -82
-9 -22 -20 -39 -23 -39 -3 0 -21 9 -38 20 l-33 19 21 48 c11 26 49 111 83 188
35 77 66 148 69 158 7 20 16 21 51 7z m2271 -122 c67 -42 103 -78 129 -130 41
-81 32 -128 -42 -233 -23 -33 -37 -42 -82 -53 -30 -7 -76 -19 -103 -27 -53
-15 -45 -25 -67 84 -6 29 -24 87 -40 128 -16 41 -38 107 -49 148 l-19 73 70 7
c38 4 82 11 96 15 45 14 69 11 107 -12z m-1730 -63 c149 -24 138 -19 132 -66
-3 -22 -7 -43 -10 -45 -4 -4 -139 11 -183 21 -19 4 -22 -1 -27 -43 -3 -27 -1
-50 5 -53 6 -4 42 -10 80 -14 l70 -6 -7 -37 c-4 -20 -8 -39 -10 -43 -2 -3 -36
-1 -75 4 -39 6 -73 7 -76 4 -3 -3 -8 -23 -11 -45 -6 -45 -12 -42 120 -63 l77
-13 0 -38 c0 -27 -5 -41 -17 -45 -15 -6 -280 40 -290 51 -5 5 9 123 39 314
l22 144 26 -5 c14 -3 75 -13 135 -22z m1394 -56 c1 -32 -4 -34 -108 -50 l-81
-12 0 -45 0 -45 53 7 c28 4 69 10 90 13 36 5 37 5 39 -26 0 -17 1 -37 2 -43 1
-9 -27 -16 -84 -23 l-85 -10 4 -45 c1 -25 4 -45 4 -46 1 0 51 3 112 8 60 5
115 6 122 3 8 -2 13 -21 13 -43 l0 -39 -137 -13 c-218 -21 -198 -25 -201 45
-1 33 -9 124 -17 203 -22 210 -31 188 78 195 50 4 112 12 137 20 43 12 45 12
52 -7 3 -12 6 -33 7 -47z m-1123 11 c33 0 34 -1 34 -39 0 -55 8 -71 36 -71 19
0 26 -7 31 -30 7 -40 38 -40 61 0 9 16 25 30 34 30 21 0 48 37 48 67 0 21 5
23 51 23 l52 0 -6 -67 c-4 -38 -7 -141 -7 -229 0 -180 1 -176 -68 -167 l-40 5
5 114 6 114 -32 0 c-25 0 -31 -4 -31 -21 0 -32 -19 -59 -42 -59 -31 0 -58 29
-58 61 0 19 -6 30 -21 34 -11 4 -22 5 -24 3 -2 -2 -7 -53 -12 -113 l-8 -110
-45 0 -45 0 4 225 c2 124 6 229 8 233 3 5 12 6 20 3 8 -3 30 -6 49 -6z m668
-44 c5 -19 14 -25 39 -28 32 -3 32 -4 35 -60 3 -49 0 -58 -18 -68 -11 -6 -20
-16 -20 -23 0 -14 35 -47 49 -47 12 0 21 -66 14 -102 -4 -18 -15 -34 -30 -41
-14 -6 -31 -23 -39 -38 -14 -28 -14 -28 -135 -31 -66 -2 -123 -1 -125 1 -2 2
-4 107 -4 233 l0 228 114 0 c112 0 114 0 120 -24z"/>
<path d="M1555 2350 c-9 -17 -20 -30 -26 -30 -22 0 -88 -64 -94 -91 -9 -38 7
-64 60 -95 l45 -26 65 59 c64 56 95 97 95 125 0 7 -21 27 -47 44 -73 47 -81
48 -98 14z"/>
<path d="M5840 2311 c-22 -9 -120 -72 -120 -77 0 -2 22 -25 48 -51 26 -27 65
-68 86 -92 l39 -44 24 29 c13 16 38 43 54 60 30 31 30 33 15 61 -15 30 -80 94
-113 111 -10 5 -25 7 -33 3z"/>
<path d="M1907 2087 c-8 -12 -27 -35 -41 -52 l-26 -30 21 -18 c50 -40 104 -30
137 25 15 25 15 28 -3 49 -11 11 -32 27 -46 35 -25 12 -28 12 -42 -9z"/>
<path d="M5113 1817 c-24 -6 -43 -14 -43 -17 0 -4 25 -44 55 -89 30 -45 58
-93 61 -107 7 -28 6 -28 54 5 83 56 87 102 16 177 -46 48 -61 51 -143 31z"/>
<path d="M4703 1663 l-32 -4 28 -52 c16 -29 39 -83 52 -122 13 -38 24 -71 25
-72 0 -2 18 6 40 16 22 11 53 38 69 61 l28 41 -19 47 c-33 78 -78 99 -191 85z"/>
<path d="M3912 1478 l3 -43 45 4 c55 4 72 16 68 50 -3 24 -7 26 -61 29 l-58 3
3 -43z"/>
<path d="M3914 1335 c3 -9 6 -30 6 -46 l0 -29 66 0 65 0 -3 43 -3 42 -69 3
c-60 3 -68 1 -62 -13z"/>
<path d="M640 2650 c0 -36 -2 -40 -25 -40 -24 0 -25 -2 -25 -65 0 -59 2 -65
20 -65 15 0 22 -9 27 -30 5 -28 9 -30 54 -32 27 -1 57 -2 66 -2 10 -1 19 8 21
19 6 28 21 45 43 45 17 0 19 8 19 65 0 63 -1 65 -26 65 -19 0 -25 4 -21 15 4
8 2 17 -3 20 -6 4 -10 15 -10 26 0 17 -7 19 -70 19 l-70 0 0 -40z"/>
<path d="M6990 2646 l0 -46 40 0 40 0 0 40 c0 31 -4 40 -17 40 -10 0 -28 3
-40 6 -21 6 -23 3 -23 -40z"/>
<path d="M5638 2603 c7 -3 16 -2 19 1 4 3 -2 6 -13 5 -11 0 -14 -3 -6 -6z"/>
<path d="M980 2555 l0 -45 51 0 50 0 -3 43 -3 42 -47 3 -48 3 0 -46z"/>
<path d="M6170 2556 l0 -44 48 -4 c26 -3 48 -4 49 -4 0 1 4 22 8 49 l7 47 -56
0 -56 0 0 -44z"/>
<path d="M163 2543 l4 -48 47 -3 46 -3 0 50 0 51 -50 0 -51 0 4 -47z"/>
<path d="M1187 2583 c-4 -3 -7 -19 -7 -34 0 -34 30 -46 73 -30 40 16 38 56 -4
65 -40 8 -54 8 -62 -1z"/>
<path d="M384 2488 c-3 -5 -3 -43 1 -84 l7 -74 54 0 55 0 -3 82 -3 83 -53 1
c-29 1 -55 -3 -58 -8z"/>
<path d="M6990 2455 l0 -45 45 0 45 0 0 45 0 45 -45 0 -45 0 0 -45z"/>
<path d="M7190 2473 c0 -10 -3 -28 -6 -40 -6 -21 -3 -23 35 -23 l42 0 -3 38
c-3 34 -6 37 -35 40 -26 3 -33 0 -33 -15z"/>
<path d="M628 2303 c-3 -4 -3 -27 0 -50 l4 -43 44 0 44 0 0 45 c0 43 -1 45
-29 45 -16 0 -36 3 -44 6 -8 3 -17 2 -19 -3z"/>
<path d="M810 2263 c0 -42 0 -43 35 -43 34 0 35 1 35 39 0 37 -2 39 -35 43
l-35 4 0 -43z"/>
<path d="M6980 2291 c0 -10 3 -33 6 -50 6 -29 9 -31 51 -31 l44 0 -3 48 -3 47
-47 2 c-41 2 -48 0 -48 -16z"/>
<path d="M7170 2258 l0 -48 45 0 45 0 0 44 0 44 -45 4 -45 3 0 -47z"/>
<path d="M960 2146 l0 -146 38 0 c54 0 64 -9 52 -50 -12 -43 1 -60 50 -60 48
0 52 -6 35 -47 -21 -50 -19 -55 19 -48 19 4 43 2 56 -5 19 -10 21 -18 18 -63
l-3 -52 43 4 c24 1 49 -2 55 -8 7 -5 33 -11 57 -13 49 -3 52 -10 35 -70 l-7
-28 85 0 84 0 7 -59 7 -60 57 2 57 2 -3 -52 -3 -53 53 2 c29 1 77 -2 105 -7
l53 -8 6 -48 c8 -62 22 -73 78 -65 62 10 92 -1 115 -40 19 -32 24 -34 71 -34
46 0 50 -2 50 -24 0 -54 5 -56 111 -56 72 0 99 -3 100 -12 0 -7 0 -75 -1 -150
l-1 -138 45 0 45 0 3 98 3 97 44 3 44 3 -3 -193 c-2 -106 -2 -210 -2 -230 l2
-38 45 0 45 0 2 208 3 207 38 3 37 3 0 -108 c0 -59 3 -125 7 -146 6 -37 6 -38
47 -35 l41 3 5 100 5 100 105 -4 c58 -2 175 -9 260 -17 160 -13 241 -20 298
-22 l32 -2 0 -140 0 -140 44 0 c41 0 44 2 50 31 3 17 6 78 6 136 l0 104 41 -3
40 -3 -1 -255 c-1 -140 -2 -266 -3 -280 -2 -23 2 -25 51 -30 l52 -6 0 289 0
290 31 -7 c17 -3 38 -6 45 -6 11 0 14 -35 14 -190 l0 -190 45 0 45 0 0 199 0
199 36 7 c20 3 37 5 39 3 2 -2 6 -48 10 -104 7 -97 7 -101 -14 -107 -18 -4
-21 -13 -21 -60 0 -40 4 -56 15 -61 8 -3 15 -14 15 -25 0 -14 8 -20 33 -22 46
-6 77 0 77 14 0 7 10 21 21 31 18 15 21 25 16 64 -3 32 -12 51 -26 61 -19 12
-21 23 -21 117 l0 104 40 0 40 0 0 -45 c0 -45 0 -45 36 -45 l36 0 -7 49 c-4
27 -3 51 2 54 4 2 23 2 41 0 l32 -5 0 -159 0 -159 60 0 c52 0 60 3 60 19 0 10
3 33 6 50 5 24 3 31 -10 31 -14 0 -16 16 -16 120 0 119 0 120 25 126 49 12 55
2 55 -95 l0 -90 58 -6 c31 -3 74 -8 95 -10 l37 -5 0 54 0 55 -47 3 -48 3 -3
92 -3 93 56 0 c31 0 71 -6 89 -14 32 -13 34 -13 46 9 12 22 18 23 94 22 l81
-2 -3 58 -3 58 63 -7 c35 -4 65 -9 68 -11 3 -3 4 -74 4 -159 l-1 -154 53 0 54
0 1 53 c0 28 0 118 0 199 l0 146 59 -5 60 -6 0 52 c0 50 1 51 29 51 16 0 42
-3 59 -6 26 -5 31 -12 34 -38 3 -30 5 -31 56 -34 l52 -3 0 50 c0 49 -1 50 -23
42 -13 -5 -39 -11 -58 -13 -32 -3 -34 -1 -37 31 -2 18 1 38 6 43 12 12 92 -10
108 -29 10 -11 13 -4 19 36 l7 49 53 -5 54 -6 3 54 3 54 57 -3 c54 -4 57 -3
64 22 3 14 3 37 0 51 -7 28 -8 28 71 25 l52 -1 3 52 3 52 59 1 60 1 -3 62 -2
63 60 -7 61 -6 0 62 c0 68 -1 67 78 52 l42 -8 -6 64 c-8 72 -13 67 54 48 22
-6 22 -6 22 114 0 65 -3 126 -6 135 -3 9 -17 16 -29 16 -27 0 -33 -14 -49
-110 l-11 -65 -48 -3 c-48 -3 -48 -4 -42 -32 4 -20 1 -37 -9 -52 -9 -12 -16
-34 -16 -49 0 -31 -15 -39 -76 -39 l-45 0 2 -50 c2 -27 0 -53 -4 -57 -4 -3
-32 -8 -62 -11 l-55 -4 0 -43 0 -43 -49 -7 c-38 -5 -51 -12 -60 -31 -10 -23
-40 -31 -88 -25 -9 1 -13 -12 -13 -38 0 -49 -22 -64 -86 -59 l-44 3 0 -37 0
-38 -69 0 -69 0 2 -52 1 -53 -67 -3 -67 -3 -3 -37 -3 -37 -110 -11 c-60 -7
-111 -12 -112 -13 -1 -1 -3 -13 -5 -29 -3 -25 -6 -27 -57 -30 -32 -2 -60 -10
-69 -19 -12 -12 -29 -14 -70 -10 l-55 6 6 -53 5 -54 -120 -7 -120 -7 -10 -29
c-7 -21 -16 -29 -35 -29 -13 0 -33 -5 -44 -11 -23 -12 -115 -29 -179 -34 -25
-1 -103 -8 -175 -14 -368 -32 -526 -32 -1025 -1 -131 9 -202 17 -215 26 -11 8
-46 14 -84 14 l-64 0 6 40 5 39 -97 0 c-53 0 -112 5 -131 11 -19 5 -50 10 -67
10 -32 0 -33 1 -33 44 l0 44 -97 4 c-109 5 -168 29 -179 74 -6 22 -11 24 -64
24 -65 0 -86 15 -76 55 6 23 4 25 -26 25 -18 0 -64 11 -103 24 -62 21 -71 27
-79 55 -9 30 -11 31 -62 31 -53 0 -54 1 -54 29 0 29 -2 30 -52 33 -51 3 -53 4
-53 33 -1 29 -1 30 -55 30 l-55 0 0 40 0 40 -59 3 -59 3 6 55 6 55 -59 -7
c-32 -3 -71 -3 -86 0 -24 6 -26 10 -20 46 3 21 9 45 12 54 5 14 -4 16 -66 16
l-73 0 6 55 c6 61 11 58 -84 70 -56 7 -56 8 -66 153 -4 62 -11 106 -19 113 -7
5 -28 13 -48 16 l-36 6 0 -147z m347 -418 c-3 -8 -6 -5 -6 6 -1 11 2 17 5 13
3 -3 4 -12 1 -19z"/>
<path d="M270 2100 l0 -110 109 0 110 0 3 104 3 104 -65 6 c-36 3 -86 6 -112
6 l-48 0 0 -110z"/>
<path d="M6607 2183 c-4 -3 -7 -23 -7 -43 0 -34 3 -38 31 -44 71 -14 79 -10
79 38 0 42 -1 44 -37 50 -49 8 -58 7 -66 -1z"/>
<path d="M6960 2032 l0 -69 -104 2 c-101 1 -104 0 -96 -19 4 -13 21 -24 44
-29 35 -9 36 -10 36 -57 l0 -47 -46 -7 c-26 -3 -65 -6 -88 -6 l-41 0 3 -65 4
-64 81 -3 82 -3 3 -57 c3 -63 0 -61 79 -58 l42 1 3 -83 3 -83 66 -3 c66 -3 66
-3 72 26 3 16 3 54 0 85 l-6 56 74 3 74 3 3 57 3 57 57 3 57 3 1 62 c1 60 1
61 -29 67 -16 3 -43 6 -59 6 l-30 0 4 80 3 80 -72 0 -73 0 0 65 0 65 -75 0
-75 0 0 -68z m150 -181 c0 -30 4 -40 20 -44 17 -4 20 -14 20 -66 0 -59 -1 -61
-25 -61 -20 0 -27 -6 -32 -30 -6 -30 -7 -31 -61 -28 -50 3 -55 5 -59 28 -2 14
-11 31 -20 37 -18 14 -45 82 -37 95 3 4 14 8 24 8 24 0 40 29 40 69 l0 31 65
0 65 0 0 -39z"/>
<path d="M505 1905 c-4 -52 -5 -101 -1 -110 4 -12 26 -15 111 -15 l105 0 0 94
c0 52 3 101 6 110 5 14 -8 16 -104 16 l-110 0 -7 -95z"/>
<path d="M820 1976 c0 -7 3 -28 6 -45 6 -27 10 -31 40 -31 34 0 34 1 34 45 l0
45 -40 0 c-27 0 -40 -4 -40 -14z"/>
<path d="M6520 1933 c0 -38 3 -43 23 -43 12 0 32 -3 45 -6 21 -6 22 -3 22 42
l0 49 -45 0 -45 0 0 -42z"/>
<path d="M6380 1615 l0 -55 50 0 50 0 0 55 0 55 -50 0 -50 0 0 -55z"/>
<path d="M390 1610 l0 -50 50 0 50 0 0 50 0 50 -50 0 -50 0 0 -50z"/>
<path d="M750 1611 l0 -51 46 0 45 0 -3 48 -3 47 -42 3 -43 3 0 -50z"/>
<path d="M970 1613 c0 -27 3 -72 6 -100 l7 -53 52 0 52 0 7 61 c3 34 6 79 6
100 l0 39 -65 0 -65 0 0 -47z"/>
<path d="M407 1454 c-4 -4 -7 -26 -7 -50 l0 -42 43 -4 c23 -3 43 -4 44 -4 1 1
3 24 5 51 l3 50 -40 3 c-23 2 -44 0 -48 -4z"/>
<path d="M623 1408 l2 -43 40 0 c38 0 40 2 43 34 4 39 -9 51 -55 51 -30 0 -31
-1 -30 -42z"/>
<path d="M1228 1415 c4 -32 8 -35 59 -50 30 -9 76 -15 101 -13 l47 3 3 48 3
47 -108 0 -109 0 4 -35z"/>
<path d="M6039 1443 c-6 -38 11 -63 44 -63 13 0 17 8 17 35 0 32 -2 35 -30 35
-16 0 -31 -3 -31 -7z"/>
<path d="M6268 1378 l-3 -63 -42 -9 c-42 -9 -43 -9 -43 -51 0 -41 1 -43 38
-52 37 -9 37 -9 40 -66 l3 -57 174 0 175 0 0 120 0 120 -55 0 -55 0 0 60 0 60
-115 0 -114 0 -3 -62z m184 -64 c34 -6 36 -9 40 -48 7 -61 3 -66 -58 -66 l-54
0 0 60 c0 66 0 66 72 54z"/>
<path d="M6620 1386 c0 -52 1 -54 31 -60 67 -13 69 -12 69 54 l0 60 -50 0 -50
0 0 -54z"/>
<path d="M6000 1331 c-14 -4 -42 -6 -63 -5 l-38 1 3 -91 3 -91 68 -3 67 -3 -1
78 c-1 104 -7 121 -39 114z"/>
<path d="M6860 1272 l0 -50 45 -6 c25 -4 49 -4 55 -1 5 3 10 26 10 51 0 43 -1
44 -32 44 -18 0 -43 3 -55 6 -22 6 -23 3 -23 -44z"/>
<path d="M977 1303 c-4 -3 -7 -24 -7 -46 l0 -39 -40 7 c-47 8 -43 20 -44 -141
l-1 -121 196 0 196 1 7 65 c3 36 6 94 6 128 l0 62 -42 3 c-43 3 -43 3 -46 46
l-3 42 -108 0 c-59 0 -111 -3 -114 -7z m204 -97 c2 -2 2 -34 1 -70 l-4 -67
-91 3 -92 3 -1 60 c0 33 1 63 3 68 4 7 176 10 184 3z m79 -166 c0 -5 -5 -10
-11 -10 -5 0 -7 5 -4 10 3 6 8 10 11 10 2 0 4 -4 4 -10z"/>
<path d="M408 1220 c-4 -27 -2 -30 29 -36 42 -8 56 4 47 40 -5 21 -12 26 -39
26 -29 0 -33 -4 -37 -30z"/>
<path d="M627 1243 c-4 -3 -7 -17 -7 -29 0 -17 7 -25 24 -30 30 -7 42 -1 49
26 4 16 -1 23 -19 31 -30 11 -38 11 -47 2z"/>
<path d="M7150 1201 l0 -42 48 3 c45 3 47 4 50 36 3 29 1 32 -25 32 -15 0 -38
3 -50 6 -21 6 -23 3 -23 -35z"/>
<path d="M1840 1105 l0 -65 44 0 c68 0 85 24 70 99 -6 30 -8 31 -60 31 l-54 0
0 -65z"/>
<path d="M1468 1143 c-15 -4 -18 -16 -18 -67 0 -34 -5 -67 -11 -73 -22 -22 3
-33 77 -33 l74 0 0 38 c0 20 -3 61 -6 90 l-7 52 -46 -1 c-25 -1 -54 -3 -63 -6z"/>
<path d="M404 1076 c-3 -8 -4 -24 -2 -36 2 -18 11 -23 46 -25 l42 -3 0 39 c0
39 0 39 -40 39 -26 0 -43 -5 -46 -14z"/>
<path d="M6980 1036 l0 -54 50 -4 50 -3 0 58 0 57 -50 0 -50 0 0 -54z"/>
<path d="M5430 1025 l0 -55 50 0 50 0 0 55 0 55 -50 0 -50 0 0 -55z"/>
<path d="M2057 1063 c-2 -4 -5 -27 -4 -50 l0 -41 44 -4 c25 -2 48 -1 52 2 5 3
5 25 2 50 -6 44 -6 45 -48 48 -22 2 -43 -1 -46 -5z"/>
<path d="M5792 1023 l3 -48 43 -3 42 -3 0 50 0 51 -46 0 -45 0 3 -47z"/>
<path d="M6000 905 c0 -59 -1 -57 43 -59 l37 -2 0 53 0 53 -40 0 -40 0 0 -45z"/>
<path d="M6172 900 l-1 -50 45 0 44 0 0 50 0 50 -43 0 -44 0 -1 -50z"/>
<path d="M6370 900 l0 -50 43 0 42 0 0 50 0 50 -42 0 -43 0 0 -50z"/>
<path d="M628 883 l-3 -58 -57 3 -58 4 0 -56 c0 -61 2 -60 -71 -56 l-36 1 1
-110 c1 -123 0 -121 79 -121 l37 0 0 -55 0 -55 167 2 166 3 1 55 1 55 63 3 62
3 0 109 0 110 -60 0 -60 0 0 55 0 55 -55 0 -55 0 0 55 0 55 -60 0 -59 0 -3
-57z m120 -230 l3 -53 -60 0 -61 0 0 48 c0 27 3 52 7 56 4 4 30 6 58 4 l50 -3
3 -52z"/>
<path d="M6553 894 c2 -46 2 -46 40 -50 l37 -3 0 49 0 50 -40 0 -39 0 2 -46z"/>
<path d="M6783 923 c-31 -4 -33 -7 -33 -43 0 -36 2 -38 38 -43 20 -2 40 -2 45
0 15 9 5 95 -12 91 -3 0 -21 -3 -38 -5z"/>
<path d="M5810 879 c0 -11 0 -22 0 -26 0 -8 61 -5 69 3 8 8 -21 32 -44 37 -19
3 -25 0 -25 -14z"/>
<path d="M4885 860 c-3 -5 -1 -10 4 -10 6 0 11 5 11 10 0 6 -2 10 -4 10 -3 0
-8 -4 -11 -10z"/>
<path d="M1590 745 l0 -115 115 0 115 0 0 115 0 115 -115 0 -115 0 0 -115z"/>
<path d="M4974 852 c-6 -4 -13 -26 -17 -49 l-5 -43 59 0 59 0 0 34 c0 19 3 41
6 50 5 13 -2 16 -42 16 -27 0 -54 -4 -60 -8z"/>
<path d="M1210 800 l0 -50 55 0 55 0 0 50 0 50 -55 0 -55 0 0 -50z"/>
<path d="M2084 810 c-1 -23 3 -30 17 -30 14 0 19 7 19 30 0 22 -5 30 -17 30
-13 0 -18 -9 -19 -30z"/>
<path d="M5545 830 c-4 -6 -5 -32 -3 -58 l3 -47 -57 -3 -58 -3 0 -54 0 -55
-50 0 c-45 0 -50 -2 -50 -22 0 -13 -3 -40 -6 -60 l-6 -37 58 -3 59 -3 0 -55 0
-54 53 3 52 2 0 -54 0 -55 51 -4 c28 -1 53 -1 55 1 2 2 4 28 4 58 l0 53 58 0
58 0 -1 53 0 52 53 3 52 3 0 60 0 59 -50 0 -50 0 0 55 0 55 -55 0 -55 0 0 60
0 60 -54 0 c-30 0 -58 -5 -61 -10z m123 -282 l3 -58 -66 0 -65 0 0 38 c0 20
-3 47 -6 60 -6 23 -5 23 62 20 l69 -3 3 -57z"/>
<path d="M6990 767 l0 -44 41 0 40 0 -3 41 c-3 40 -4 41 -40 44 l-38 3 0 -44z"/>
<path d="M3390 754 c-19 -7 -47 -13 -61 -13 -42 -1 -57 -21 -61 -84 -4 -53 -2
-60 18 -74 13 -8 26 -23 29 -34 5 -14 16 -19 42 -19 28 0 43 9 80 47 l45 46
-5 59 c-4 42 -11 64 -24 73 -21 17 -18 17 -63 -1z"/>
<path d="M5997 743 c-4 -3 -7 -26 -7 -50 l0 -43 45 0 45 0 0 50 0 50 -38 0
c-21 0 -42 -3 -45 -7z"/>
<path d="M6180 702 l0 -48 40 4 40 4 0 44 0 44 -40 0 -40 0 0 -48z"/>
<path d="M6750 736 c0 -12 11 -16 41 -16 52 0 48 24 -4 28 -28 2 -37 -1 -37
-12z"/>
<path d="M6370 690 l0 -50 45 0 c45 0 45 0 45 34 0 19 3 41 6 50 5 13 -2 16
-45 16 l-51 0 0 -50z"/>
<path d="M4978 551 l4 -49 41 5 c23 3 44 7 45 9 2 1 6 21 9 43 l6 41 -54 0
-54 0 3 -49z"/>
<path d="M6540 535 l0 -45 45 0 45 0 0 45 0 45 -45 0 -45 0 0 -45z"/>
<path d="M6740 535 c0 -45 0 -45 34 -45 19 0 41 -3 50 -6 13 -5 16 2 16 45 l0
51 -50 0 -50 0 0 -45z"/>
<path d="M1593 534 c8 -46 8 -47 51 -39 33 7 36 10 36 41 0 34 0 34 -46 34
l-47 0 6 -36z"/>
<path d="M6170 524 l0 -45 43 4 c41 4 42 4 45 45 l3 42 -45 0 -46 0 0 -46z"/>
<path d="M3147 514 c-9 -9 -9 -56 1 -70 4 -6 26 -14 50 -18 l42 -6 0 45 c0 40
-3 45 -22 45 -13 0 -32 3 -43 6 -11 3 -24 2 -28 -2z"/>
<path d="M2381 503 l-54 -4 7 -102 c4 -56 9 -103 10 -105 2 -2 45 -6 95 -9
l91 -6 0 112 0 111 -27 0 c-16 0 -37 2 -48 3 -11 2 -44 2 -74 0z"/>
<path d="M1714 453 l2 -48 52 -3 52 -3 0 50 0 51 -55 0 -54 0 3 -47z"/>
<path d="M5132 483 c-20 -4 -23 -9 -17 -31 8 -32 4 -28 38 -36 24 -6 27 -4 27
18 0 13 3 31 6 40 6 17 -5 18 -54 9z"/>
<path d="M994 458 c3 -13 5 -31 5 -40 1 -14 10 -18 41 -18 l40 0 0 40 0 40
-45 0 c-41 0 -45 -2 -41 -22z"/>
<path d="M4853 392 l-43 -3 0 -45 c0 -31 4 -44 14 -44 7 0 27 -3 43 -6 30 -6
30 -5 36 43 3 26 2 50 -1 53 -4 3 -26 4 -49 2z"/>
<path d="M1332 343 l3 -48 43 0 44 0 3 48 3 47 -50 0 -49 0 3 -47z"/>
<path d="M1942 343 l3 -48 43 -3 c40 -3 42 -2 42 25 0 15 3 38 6 51 6 21 3 22
-45 22 l-52 0 3 -47z"/>
<path d="M2130 339 l0 -50 43 3 42 3 3 48 3 47 -45 0 -46 0 0 -51z"/>
<path d="M2700 340 l0 -51 48 3 47 3 0 45 0 45 -47 3 -48 3 0 -51z"/>
<path d="M2930 345 l0 -45 50 0 50 0 0 45 0 45 -50 0 -50 0 0 -45z"/>
<path d="M3607 348 c3 -24 6 -43 7 -44 0 -1 20 -4 43 -8 l41 -6 4 50 3 50 -52
0 -51 0 5 -42z"/>
<path d="M4370 345 l0 -45 50 0 c45 0 50 2 50 23 0 12 3 32 6 45 6 21 4 22
-50 22 l-56 0 0 -45z"/>
<path d="M4610 345 l0 -45 45 0 45 0 0 45 0 45 -45 0 -45 0 0 -45z"/>
<path d="M6613 383 c-30 -4 -31 -6 -26 -41 3 -20 7 -38 8 -39 1 -2 24 -4 51
-5 l49 -3 0 45 c0 49 -7 53 -82 43z"/>
<path d="M6170 335 l0 -45 40 0 40 0 0 45 0 45 -40 0 -40 0 0 -45z"/>
<path d="M6370 335 l0 -45 45 0 45 0 0 45 0 45 -45 0 -45 0 0 -45z"/>
</g>
</svg>
